/* XPM */
static char *d61f77bf0cc741148dd4ef2d9816393aqXjTENBZgUyVPQzh[] = {
/* columns rows colors chars-per-pixel */
"65 64 256 2 ",
"   c black",
".  c #010101",
"X  c #020202",
"o  c gray1",
"O  c #040404",
"+  c gray2",
"@  c #060606",
"#  c #070707",
"$  c gray3",
"%  c #090909",
"&  c gray4",
"*  c #0B0B0B",
"=  c #0C0C0C",
"-  c gray5",
";  c #0E0E0E",
":  c gray6",
">  c #101010",
",  c #111111",
"<  c gray7",
"1  c #131313",
"2  c gray8",
"3  c #151515",
"4  c #161616",
"5  c gray9",
"6  c #181818",
"7  c #191919",
"8  c gray10",
"9  c #1B1B1B",
"0  c gray11",
"q  c #1D1D1D",
"w  c #1E1E1E",
"e  c gray12",
"r  c #202020",
"t  c gray13",
"y  c #222222",
"u  c #232323",
"i  c gray14",
"p  c #252525",
"a  c gray15",
"s  c #272727",
"d  c #282828",
"f  c gray16",
"g  c #2A2A2A",
"h  c gray17",
"j  c #2C2C2C",
"k  c #2D2D2D",
"l  c gray18",
"z  c #2F2F2F",
"x  c gray19",
"c  c #313131",
"v  c #323232",
"b  c gray20",
"n  c #343434",
"m  c #353535",
"M  c gray21",
"N  c #373737",
"B  c gray22",
"V  c #393939",
"C  c #3A3A3A",
"Z  c gray23",
"A  c #3C3C3C",
"S  c gray24",
"D  c #3E3E3E",
"F  c #3F3F3F",
"G  c gray25",
"H  c #414141",
"J  c gray26",
"K  c #434343",
"L  c #444444",
"P  c gray27",
"I  c #464646",
"U  c gray28",
"Y  c #484848",
"T  c #494949",
"R  c gray29",
"E  c #4B4B4B",
"W  c #4C4C4C",
"Q  c gray30",
"!  c #4E4E4E",
"~  c gray31",
"^  c #505050",
"/  c #515151",
"(  c gray32",
")  c #535353",
"_  c gray33",
"`  c #555555",
"'  c #565656",
"]  c gray34",
"[  c #585858",
"{  c gray35",
"}  c #5A5A5A",
"|  c #5B5B5B",
" . c gray36",
".. c #5D5D5D",
"X. c gray37",
"o. c #5F5F5F",
"O. c #606060",
"+. c gray38",
"@. c #626262",
"#. c gray39",
"$. c #646464",
"%. c #656565",
"&. c gray40",
"*. c #676767",
"=. c #686868",
"-. c DimGray",
";. c #6A6A6A",
":. c gray42",
">. c #6C6C6C",
",. c #6D6D6D",
"<. c gray43",
"1. c #6F6F6F",
"2. c gray44",
"3. c #717171",
"4. c #727272",
"5. c gray45",
"6. c #747474",
"7. c gray46",
"8. c #767676",
"9. c #777777",
"0. c gray47",
"q. c #797979",
"w. c gray48",
"e. c #7B7B7B",
"r. c #7C7C7C",
"t. c gray49",
"y. c #7E7E7E",
"u. c gray50",
"i. c #808080",
"p. c #818181",
"a. c gray51",
"s. c #838383",
"d. c #848484",
"f. c gray52",
"g. c #868686",
"h. c gray53",
"j. c #888888",
"k. c #898989",
"l. c gray54",
"z. c #8B8B8B",
"x. c gray55",
"c. c #8D8D8D",
"v. c #8E8E8E",
"b. c gray56",
"n. c #909090",
"m. c gray57",
"M. c #929292",
"N. c #939393",
"B. c gray58",
"V. c #959595",
"C. c gray59",
"Z. c #979797",
"A. c #989898",
"S. c gray60",
"D. c #9A9A9A",
"F. c #9B9B9B",
"G. c gray61",
"H. c #9D9D9D",
"J. c gray62",
"K. c #9F9F9F",
"L. c #A0A0A0",
"P. c gray63",
"I. c #A2A2A2",
"U. c gray64",
"Y. c #A4A4A4",
"T. c #A5A5A5",
"R. c gray65",
"E. c #A7A7A7",
"W. c gray66",
"Q. c #A9A9A9",
"!. c #AAAAAA",
"~. c gray67",
"^. c #ACACAC",
"/. c gray68",
"(. c #AEAEAE",
"). c #AFAFAF",
"_. c gray69",
"`. c #B1B1B1",
"'. c #B2B2B2",
"]. c gray70",
"[. c #B4B4B4",
"{. c gray71",
"}. c #B6B6B6",
"|. c #B7B7B7",
" X c gray72",
".X c #B9B9B9",
"XX c gray73",
"oX c #BBBBBB",
"OX c #BCBCBC",
"+X c gray74",
"@X c gray",
"#X c gray75",
"$X c #C0C0C0",
"%X c #C1C1C1",
"&X c gray76",
"*X c #C3C3C3",
"=X c gray77",
"-X c #C5C5C5",
";X c #C6C6C6",
":X c gray78",
">X c #C8C8C8",
",X c gray79",
"<X c #CACACA",
"1X c #CBCBCB",
"2X c gray80",
"3X c #CDCDCD",
"4X c #CECECE",
"5X c gray81",
"6X c #D0D0D0",
"7X c gray82",
"8X c #D2D2D2",
"9X c LightGray",
"0X c gray83",
"qX c #D5D5D5",
"wX c gray84",
"eX c #D7D7D7",
"rX c #D8D8D8",
"tX c gray85",
"yX c #DADADA",
"uX c gray86",
"iX c gainsboro",
"pX c #DDDDDD",
"aX c gray87",
"sX c #DFDFDF",
"dX c gray88",
"fX c #E1E1E1",
"gX c #E2E2E2",
"hX c gray89",
"jX c #E4E4E4",
"kX c gray90",
"lX c #E6E6E6",
"zX c #E7E7E7",
"xX c gray91",
"cX c #E9E9E9",
"vX c #EAEAEA",
"bX c gray92",
"nX c #ECECEC",
"mX c gray93",
"MX c #EEEEEE",
"NX c #EFEFEF",
"BX c gray94",
"VX c #F1F1F1",
"CX c gray95",
"ZX c #F3F3F3",
"AX c #F4F4F4",
"SX c gray96",
"DX c #F6F6F6",
"FX c gray97",
"GX c #F8F8F8",
"HX c #F9F9F9",
"JX c gray98",
"KX c #FBFBFB",
"LX c gray99",
"PX c #FDFDFD",
"IX c #FEFEFE",
"UX c white",
/* pixels */
"L.).!.~.!.I.!._.^.!.Q.Q.Q.T.K.D.F.I.G.H.Z.v.A.D.M.C.s.h.U.C.i.n.0.w.i.l.Z.H.Z.v.n.L.~.k.B.l.#.N.D.d.l.C.c.M.H.B.A.M.A.N.v.c.g.v.s.",
";XeX0XeXuXrXpXiXhXpXqX6X4X3X2X<X%X*X X#X=X.X+X&X+X'.U.J.T.Y.v.5.r.7.w.g.d.f.!.tX1X>X,XI..X-Xi.!.#X~.].%XOX&X3X-X,X%X=XOX{.`.Q._.U.",
"$X0X5X5XwXeXtX7X5X3X2X3X3X1X;X&X&X&X'.@X<X|.'.XX!.P.U.S.y.w.k.c.b.N.f.;.O.<.e.e./.[.9X^.U.rXH.!.;X|.$X6X5XqXpXrXyX6X5X&X X'.E./.U.",
"XX6X1X;X3X9XtX7X,X>X:X>X,X:X&X@XoXOX^.}.#XW.P.^.U.].g.=.Z.}.`.+X=X:X<X&XW.x.s.l.f.i.{.#XA.0X%X|.4X*X1XyXiXaXgXsXpX6X2X+X`.Q.H.P.L.",
"+XqX6X<X4XeXjXgXhXyX3X=X&X=X;X:X+X%X'.}.XX(.'.oX*X$.>.(.(.`.8X0X3X3XwXsXiX,X X_.T.h.h.+X|.qX0X5XfXrXiXzXcXlXkXhXiX4X,XXX(.R.S.G.P.",
"*XyXqX5X6X7XiXpXuX9X>X$X+X@X#X#XoX#X[.'.[.XX*X}.! f.P.L.E./.}.,X8XtXyXiXVXPXfX[.*X1XM.H.{.7XqX8XjXpXiXgXjXiXqX0X2X@XXX/.U.G.v.m.C.",
"4XfXsXgXhXuXpXuXwX9X5X4X3X<X-X%X@X$XOX.X X*X.Xu.Q x.~.~..X+XOX3X1X7XlXLXJXlXiXfX2XlX:XE.Y.,XsX8XdXuXqXrXyX5X-X;X#X'._.Y.G.C.j.l.M.",
"{.>X2XyXgXrX0X5XyX9X<X*X$X#X+XOXOX+X@X+X}.+XA.M =.f.Z.K./. X%X5X0XjXNXnXbXmXlXrX9X|.9X5XY.XXgX6XqX7X<X1X3X%X{. X[.E.R.G.B.b.i.a.v.",
"}.>X=X=X,X<X8X8XrXyX0X-XXX.XOX+X%X{.@X{./.^.] I ) 3.j.J. X@X@X,X:XsXvXmXVXkXtXfXwXwX.X}. X(.:X6X#X<X{.2X#X!.Y.~.L.A.J.H.k.i.i.0.k.",
"}.>X&X$X*X%X;X=X:X3X5X,X*X%X#XOX#X`.{.(. XY.R H O.8.u.i.s.y.d.A.~.Q.OXqXgXcXhX8X8X%XM.A.D.D..X7XXX).].~.`.^.S.G.H.V.B.C.m.l.d.r.k.",
"].;X$X@X#XXX@XXX X+X%X&X%X$XOX|.@X[.{.~.&XM.F ! :.=.| / E F Z I $.w.V.Y.~.@XtXvXsX:Xm.!.!.T.W.[.I.[.}.L.'.v.h.R.Z.b.f.l.V.n.a.r.f.",
"_.*X#X@X$XoX@XXXXX.X|.}. X.X|.[..X|.oX(.*Xr.C $.8.o.Y Y ) _ E I B d.~.V.9.*.8.D.*X#XS.;X<X:X^.L.L.K.a.J.(.f.G.n.V.n.p.s.V.m.u.t.d.",
"/.%X@X@X$XoX@XXX$XoX}.{.|.|.}.{.{.[.XX[.$X4.A ;.>.] H B N A G F R k.`.x.^ I ..;.m.`.I.>X-X,X).S.e.r.u.L.3.2.!.S.S.C.j.h.V.n.a.d.z.",
"^.$XOXoXOX|..X{..X{.[.}. X}.].'..X`. XoX[.3.U =.-.;.&.Q x c I / 3.u.U.s.m F 2.&.;.Q.{.3X;X2X%X!.u.h.f.7.6.I.M.G.F.C.c.x.m.v.z.v.V.",
"!.+X.X|. X].}.'.]._.`.{.{.'._.`.XX_. XXXc.o.^ ,.e.N.(.!.S.P./.T.f.n.T.Z.%.W W K #.P.`.%X<X8X6X'.e.A.).k.m.E.g.'.J.B.m.N.N.Z.J.K.T.",
"E.oX}.{.|.].|.[..X[.].[.]._.'.|.]./.|.).o.F ! 8.0.N.OX0XuXhX2XF.i.G.m.G.%XJ.3.z.M._.I.J.(._.Q.i.x.,.~.OXT.K._.G.R.Z.A.J.G.R.[.'.}.",
"E..X[.].[._.[.`.)._._._._._.`.`.{.`._.'.+.Y &.>.8.i.Y.<X0X9X*Xf.i.i.M.B.0XlX0XaXuX1X[.N.a.1. .a.^.A.s./.}.F.~.E.I.K.J.P.Q.'.}.}.@X",
"Y.|.'._.'.(.'.(.(.(.(.(.).).).).{._.`.'.7.! } } 1.x.K.[.2X9X_.-.P #.V.g.R.aXVXkXrX>X].#XOXk.s.j.'.^.N.G.R.R.[.(.Q.T.E.).[.]._._.'.",
"L.].(./.).~.).^.^.^.^.^././././.).^._.].Z.@.] _ | p.z.P.$X-XV._ m P N.S.z.(.rXgX7X%XP.{.`.7.Z.t.oXXXP.M.K.Q.W.Q.Q.Y.T./.(.E.P.P.P.",
"H._.~.!.^.W.^.Q.!.!.~.~.~.~.^.^.!.!.).(.(.3.) / ~ +.3.Z.K.G.u.] E U N./.c.z.!.5X4X=XQ.G.k.&.!.s.+XXXE.A.R.Y.x.M.P.L.H.D.D.S.C.m.c.",
"D./.Q.W.!.R.~.E.Q.Q.Q.Q.!.!.!.!.!.^.^.Y.).7.T Y / W X.s.%.5.f.5.@.1.G.K.b.A.G.{.%X`.{.K.d.7.'.v.[.oX).J.~.R.f.u.Z.J.G.m.n.A.C.z.x.",
"Z.!.R.T.E.Y.W.T.R.R.R.E.E.E.E.E.E.^.W.K./.f.! R Q H ^ 2.P 1.I.F.b.S.I.Z.M.P.c.G. XD.(.T.j.p.!.B.T.%X XK.Y.^.D.p.x.Z.S.M.M.S.Z.x.u.",
"B.E.I.I.Y.P.T.I.I.U.U.U.U.Y.Y.Y.Y.!.U.L./.D.] E L A E p.*.j.W.Q./.L.P.I.A.H.i.v./.L.'.~.s.g.`.Y.S.@X}.T.H.I.~.n.c.c.b.M.N.N.V.Z.G.",
"m.Y.L.K.I.K.U.L.L.L.L.L.P.P.P.P.T.~.P.P.Q.P.) S I S ~ T.K.F.M.D.G.m.L.W.Z.W.v.z.g.Y.|.^.9.d.oXW.V.'.(._.H.n.!.G.C.l.h.m.N.v.C.E.Y.",
"M.L.J.B.G.H.F.K.K.J.G.D.D.H.I.E.P.T.W.F.Q.L...C H M Z f.G.P.H.E.P.F.U.R.J.J.A.p.i.^.~._.0.s.+X(.J.Z.}.~.R.M.m.W.F.M.c.m.B.N.Z.J.R.",
"b.A./.(.N.T.Q.h.F.H.J.K.J.J.J.K.F.H.).I.B.I.u.M Z F j &.U.W.K.K.U.G.K.L.L.R.B.:.z.).!.~.9.u.{.W.Y.G.Q.~.!.Z.z.n.A.N.n.b.b.b.m.V.S.",
"Q..XI.~._./.M.W.V.Z.S.S.Z.V.B.B.J.F.V.R.E.w.L 0 l M h b k.U.M.P.Q.T.E.U.L.Q.Z.;.J.{.!.E.e.u.).T.Q.I.A.^./.K.x.y.M.B.M.x.k.k.l.k.F.",
"G.b.l.`.I.~.Z.V.C.Z.Z.C.Z.S.H.L.A.C.k.Q.H.J 3 w 8 1 l 7 0.`.L.).S.G.W.W.J.Y.I.z.W.].E.L.u.u.W.Y.E.E.v.~.!.Y.C.s.l.n.b.h.s.f.f.p.q.",
"u.K._.<X{.<X~.k.b.n.M.M.B.C.S.G.Z.J.I.A.) q p 8 3 $ w 1 [ l.R.N.q.e.N.T.K.L.W.Y.E.!.P.S.a.e.L.Y.U.E.b.Y.K.K.H.M.d.k.k.a.u.s.a.y.6.",
"`.uX2X$X'./.x.V.C.S.D.S.B.c.h.d.1.u.9.] c r r , > 5 = , r n ).F.w.4.j.T.E.U.U.H.Y.Y.U.S.k.q.D.W.L.Y.Z.S.N.C.D.A.g.f.a.y.t.i.u.r.3.",
"5XT.M.h.{ ~ | | o.+.+.X.' W L G v S l 0 x n e s < 7 * 2 & 5 E.{.C.l.V.E.R.T.I.B.K.K.T.D.z.4.b.R.L.F.K.n.m.V.B.V.b.f.t.r.t.e.q.0.4.",
"V.p...Y ! I B n b n m m b c x x B j m 8 = g c x c 2 3 > & 5 { 2.T.H.I.T.H.U.Q.J.Z.C.I.V.g.*.p.G.K.B.U.z.C.S.N.m.Z.h.e.e.r.0.6.7.=.",
"8.] ~ ~ K T ^ H C B M b c z l l f c j 8 2 t l v v x a 5 ; ; > > J.F.H.R.P.I.W.H.,.c.k.C.j.2.$.Z.P.D.m.x.x.v.v.c.b.x.f.r.9.8.5.1.,.",
"*.S V ^ / Q Q L S Z V M b x l k f f d y q i B W m n k u 9 2 %   ,.oXZ.H.`.H.Y.I.} ] v.x.g.,.=.>.F.G.B.z.z.M.v.s.x.l.s.w.8.6.3.>.;.",
"M s C ` ^ I U U H G S C N b x z v f a d e 6 h Y V M v k g u 1 + a '.(.Y.U.L.W.~.3.Z M.j.z.y.b.,.n.D.A.h.s.x.v.g.g.f.i.0.6.4.<.-.-.",
"s z H I F P ^ Q J J H F A B m b Z x j j r , 6 k V M v c b b l f 4  .H.'.B.Y.I.~.N.C ..*.<.6.G.g.w.x.C.c.s.d.j.h.i.u.r.7.4.3.,.=.&.",
"k p 0 4 0 z A V H J K K H D Z B B m n b h r q e v v b n M V D K Z 7 ^ I.Y.P.A.Y.R.' e H R [ u.v.7.r.g.x.k.p.t.y.e.e.0.5.3.3.,.-.@.",
"6 2 < 3 3 < 6 i G J L I P J F S N C Z B m z a w h x B Z B M Z K I B v 5.Q.L.T.Y.!.s.e m L Y ..t.k.w.3.8.r.e.r.i.0.0.6.1.,.<.:.*.#.",
"< g H I C s a b G K I Y U P H D D H H D V b k s h v S J D N V G F { E ~ F.Y./.R.L.I./ a K F Y ..p.e.6.3.3.6.r.d.q.9.4.:.=.-.&.@.@.",
"r L ] / Q E L F H L U T T P H D P P P P F N M Z x M F I L D F I ~ G ) I Z.Q.G.Y.K.{.k.0 U H W ^ [ 6.z.k.w.5.8.q.w.0.3.-.%.$.@.X.| ",
"` ( W I I R R Y Q T ( T Z M ( H K I Y L F S J U ^ M B Y J ~ B Y ! U / E 7.~.I.U.H.].E.,.S V U W I #.q.f.i.q.0.1.q.2.5.$.X.%.+.| ] ",
"J K D c g z V H / P ~ _ F 0 S ` T T Y U I R ^ _ ( ^ k Z T Y W U P P / F X.K.R.Y./.C.:.L N F I P Y R X.0.q.5.9.3.4.:.=.#. .@.} %./ ",
"Q ^ Q G v s w 6 x S Q Q F 7 M [ W Y L L T ~ ` ] ` ) D t ) H | L Y Y ' J [ J.~.S.8...K V N N V S ! D R &.3.4.4.2.>.:...+.} @./ >.X.",
"T R W ! ~ I v r , s m S I u n ` ! Y K L E / ( ^ _ T / f N Q ! U T G W H E t.u. .C V F L D v l b ! W W ( >.0.>.,.>.4.} X.{ -.! ;.;.",
"U L H J E ^ W K g 0 2 l T w g [ / Q R Q _ [ ` / / ~ E W : W L ! ! K Q T G ~ R z G F F G G S M z Z ] _ F @.u.;.;.;.9...} { 6.' $.+.",
"E ! Q U K I E ! ^ Z 0 8 c 7 j ! Y T W / ' [ ` ( ( ) W ! t t Q W ! R ` ' K Z G S K P H A S K H V d U ) V / q.;.=.$.2.+.{ { 7...o. .",
"S U ~ ~ W Q ^ / ) { H r r 4 x H Z G U E W W Q Q ^ E ( J I - V I J P Y ! I Z H Y M D L H F H L K x d ! U D %.:.+.O.#.%. .[ &.} { | ",
"J L I I Y R U J Y _ ) G k * s I m A L I K J P Y U U I ^ U g @ P R E J R / U J G P G D H P P K J U 1 E | n ( -.{ o.} *.o.' ` ( ) / ",
"A S G P U I K H M E ` _ N @ n F N Y m ! ! J U Q W W J P ( H 7 q _ V E Y P ! L G A R P L R U A P P C j / Q C =...| { [ [ ' ) ~ W =.",
"W U J G H L Y E Y s k h L 9 w W N h T H Y | W ( W ] ` { ! ^ V ; B *.^ ^ ~ T M Y P E V K L T R L Z Q Z l ' R ` ..{ }  . .` ! / [ q.",
"I P L L P I I P P ) b G p # 0 n C f A H V S O.H W | U  . .[ W d z X.P / Q ~ ( H W U K { F D W F L R D m [ ) 5.=.` ` { | ( R ) $. .",
"D J P Y R E U J J Z J l 5 6 5 c k i m B K M t E m V x K b J { l # Z P V B C S A D C S L S P F J V A ` g q I | 2._ ! Q ( ~ T ( @.U ",
"U T Y P U E E Y P Q {.:X` x G.p W /.I U K.&Xh.Y J._.G.L.E.[ I A.S.C.}._.y.)._.F.u.H.=.j z.U.I R B.7.G D.L.#.L O.o.~ P Y W R Q ) E ",
"L T E Y Y T K C X.UX@X[.$.r.IXB bXwXQ vXFX&XLXXX$XgXUXgXtX+.B +XzXUXaX;Xl.wXnXUXL.IXR.V VXUX*.W UXy.` UXHXQ.Q / -.] U K Y R U P G ",
"S I E R T U A z Q DX[.-.  5.UX+XzXA a.UXo.C ^.BXP ] JXM.m S Q D ( UXe.d c S c.NXU 5XOX#.MXvXG.4.UXN *X1Xf.dXM ! &. .Q J H I U K M ",
"P R Y H H I L A q 1.tXKXV.2.KXGXgX: /.LXG z z.UX .@.UXp.D ^ U G :.PX9.b E C bX,Xi Q.MX].$XS.rX|.tXV fXzXoXUXJ K | | / H A K T U m ",
"J L U L V m F ! A +.U 3XsX9.IXK IXH.' JX/.2.aXNXD *.UXj.H ! K I @.UX3.d m e.UX2.b ,.LXUXC.O.ZXUXB...UX<X}.PX(.= (  .%.Z S U W L A ",
"U Y W W K B b M [ BXUXhXD } CX= *.VXF z.SXkXdX&.Z *.eXa.G B J !  .cX1.i G W.yXG H Y 8XMX$.H wXbX} L.0XZ y /.6Xd B _ ' K T K J U A ",
"c v B F F N k s z m H B % 7 # 5 = 1 N j l *.L V P Y o.K m h g 0 T | 7 c L ! F M D Q P G ~ Y L ( I L T ) ^ N ^ F p ~ R D F H G ~ G ",
"c v M S K K S B A U T ,   O % > 9 r 5 f K A A ) F J N d 8 > 6 u M ^ V h A ^ M F n E ~ N L Y S K I R K m J ! H V 5 V E F x W J Q U ",
"H J J J J G C m F x g = #   w O o , y f l B R S C F m q = , 9 A U G v y U L N F Y a U W E P ) D H U ` W Y _ Z B * * P Q M ' D R W ",
"J P L G V v f y r V 9   = *   , 2 < - 6 k m D B C i < o 1 l s x P P D 9 D G K k S Y ^ F / V G I U I A U D B I D 0   h P D W S } R ",
"I U P H D Z b g 9 H   * O = 3   @ > q 0 8 h s a y 3 > = 0 j M B H F P a l M Z g c H Z D K I _ F L ! D Y ^ J ~ N V r q f G A H  .H ",
"Y P F C A G A n p r 8 @   ;   - @ # O 0 5 q e 0 , & $ 1 u y Z b G D P u q L S t b J a Q W F J U L T U H ! A S P K ) u 7 T B H L B "
};
