/* XPM */
static char *_af49be5fb2f447d8e497b91abc789e2OwmoDsjoirxSoEBN[] = {
/* columns rows colors chars-per-pixel */
"64 64 187 2 ",
"   c None",
".  c #1F1611",
"X  c #221713",
"o  c #231914",
"O  c #2B1C16",
"+  c #261D1A",
"@  c #2B1E1A",
"#  c #311F16",
"$  c #301F18",
"%  c #2A2017",
"&  c #2C201A",
"*  c #362116",
"=  c #382217",
"-  c #34241D",
";  c #3A261C",
":  c #37281F",
">  c #3D291F",
",  c #2C2521",
"<  c #342B25",
"1  c #3A2B23",
"2  c #322D2A",
"3  c #3D2E29",
"4  c #3B3026",
"5  c #34312E",
"6  c #3A322B",
"7  c #3B3936",
"8  c #393634",
"9  c #442B1E",
"0  c #4A2D1E",
"q  c #41271A",
"w  c #512F1C",
"e  c #4E321E",
"r  c #52311E",
"t  c #5C361F",
"y  c #422C21",
"u  c #4A2E20",
"i  c #423124",
"p  c #4B3123",
"a  c #41352D",
"s  c #4A3728",
"d  c #4B3A2B",
"f  c #543321",
"g  c #5A3621",
"h  c #5F3821",
"j  c #503B2A",
"k  c #543920",
"l  c #493C32",
"z  c #453B37",
"x  c #633C23",
"c  c #6B3F22",
"v  c #5C422A",
"b  c #59412B",
"n  c #45403B",
"m  c #544234",
"M  c #5A4533",
"N  c #53493E",
"B  c #6D4224",
"V  c #62442B",
"C  c #694728",
"Z  c #724322",
"A  c #7B4724",
"S  c #734C2B",
"D  c #794C25",
"F  c #7A522C",
"G  c #73522D",
"H  c #604D3A",
"J  c #785833",
"K  c #7D5E39",
"L  c #464343",
"P  c #4C4B4B",
"I  c #534E4B",
"U  c #5D544C",
"Y  c #56544F",
"T  c #514E50",
"R  c #545352",
"E  c #5C5A54",
"W  c #5A5552",
"Q  c #614F45",
"!  c #615345",
"~  c #615649",
"^  c #775C4C",
"/  c #645D54",
"(  c #635E5A",
")  c #796A4F",
"_  c #666154",
"`  c #6B6256",
"'  c #69605A",
"]  c #766D5D",
"[  c #776A55",
"{  c #6F6C69",
"}  c #7E7A79",
"|  c #874D27",
" . c #8B5227",
".. c #87582A",
"X. c #8A5B2E",
"o. c #8E5129",
"O. c #9B5B2A",
"+. c #945628",
"@. c #875D30",
"#. c #8F5B35",
"$. c #A35B28",
"%. c #9D602D",
"&. c #87653B",
"*. c #936532",
"=. c #936936",
"-. c #9C6B34",
";. c #9E723C",
":. c #A6632D",
">. c #B26B2F",
",. c #AF6D37",
"<. c #B56C31",
"1. c #A0753C",
"2. c #AA7A3B",
"3. c #C17231",
"4. c #C67C3A",
"5. c #866943",
"6. c #806553",
"7. c #8A795D",
"8. c #A47E42",
"9. c #877660",
"0. c #8B7E67",
"q. c #927F61",
"w. c #807D7C",
"e. c #B1885F",
"r. c #B48F56",
"t. c #BA9353",
"y. c #BB985A",
"u. c #948364",
"i. c #9B8B6A",
"p. c #9B8964",
"a. c #8C857D",
"s. c #A28E6B",
"d. c #A8946D",
"f. c #BB9C62",
"g. c #A99670",
"h. c #AD9B74",
"j. c #B19E75",
"k. c #BBA87C",
"l. c #C1944F",
"z. c #D49B48",
"x. c #D09E50",
"c. c #DC9058",
"v. c #E69559",
"b. c #D5A04D",
"n. c #F5BE45",
"m. c #F3B357",
"M. c #CCA96A",
"N. c #C6A263",
"B. c #D0AC6B",
"V. c #DBB76D",
"C. c #CEB57A",
"Z. c #F1AA74",
"A. c #F8C26D",
"S. c #F9DA7F",
"D. c #928781",
"F. c #9C9897",
"G. c #A29B96",
"H. c #AEABA8",
"J. c #B6B4B2",
"K. c #BAB9B7",
"L. c #C9B386",
"P. c #CBB68B",
"I. c #D0BC83",
"U. c #D3BE8D",
"Y. c #F8B986",
"T. c #D3C58C",
"R. c #D3C092",
"E. c #EBC885",
"W. c #F5C48F",
"Q. c #F7CF89",
"!. c #EED187",
"~. c #FAD485",
"^. c #F8CE91",
"/. c #F9D798",
"(. c #FBDE9C",
"). c #FBEA96",
"_. c #C6C2BF",
"`. c #F8C8A1",
"'. c #FADCA0",
"]. c #FCE7AA",
"[. c #FFF2A6",
"{. c #FEF5B4",
"}. c #FEF4BC",
"|. c #DCD8D6",
" X c #FDF6C0",
".X c #F2F1F1",
"XX c white",
/* pixels */
"                                                                                                                                ",
"                                                                                                                                ",
"                                                                                                                                ",
"                                                                                                                                ",
"                                                                                                                                ",
"                                                                                                                                ",
"                                                                                                                                ",
"                                                                                                                                ",
"                                                                                                                                ",
"                                                                                                                                ",
"                                                                                                                                ",
"                                                                                                                                ",
"                                                                                                                                ",
"                                                                                                                                ",
"                                                                                                                                ",
"                                                                                                                                ",
"                                                                                                                                ",
"                                                                                                                                ",
"                                                                                                                                ",
"                                                                                                                                ",
"                                                                                                                                ",
"                                                                                                                                ",
"                                                                1 > - -                                                         ",
"                                                          y y 9 u f f 9 -                                                       ",
"                                                        p g h t B x t g 0 >                                                     ",
"                                                      2 6 6 1 U D.3 * B c 0 ; -                                                 ",
"                                                    8 ( j 0 a L z * O 9 c h 0 > -                                               ",
"                                                    { _.6.^ G.I < * # * ; B g 0 ; -                                             ",
"                                                  5 K.XX.X.X|.m < O # O * Z x 0 ; -                                             ",
"                                                  5 J.H.} w.F.Q 1 0 ; O O w h 9 - *                                             ",
"                                                  7 G.! d l j S f 0 q O O t g 9 - * @                                           ",
"                                                  5 J.a.e k x :.A r = 3 ; r e 9 - & o                                           ",
"                                                  , U l < 4 4 F O.Z 0 p - ; 9 9 - & +                                           ",
"                                                < , < s b b d < V +.B e 9 y 9 9 : - @                                           ",
"                                                i i i i s d s i 1 S  .g u u u 9 - - @                                           ",
"                                                  B D *.1.;.;...B x %.c f 0 0 9 - - &                                           ",
"                                                  @.f.I.T.I.C.C.y.S >. .g 0 0 9 ; - &                                           ",
"                                                  =.!.{. X'.(.[.V.  4.>.c f 0 0 > - & @                                         ",
"                                                  *.E.}./.m.].{.M.  ,.3.+.x f 0 9 - - &                                         ",
"                                                    B.}.A.n.Q.}.N.    4.3.| x p 9 - - - &                                       ",
"                                                    M.].~.).S.].t.      <.$.A f 9 > - - @                                       ",
"                                                    M.`.W.~.Y.^.t.        O.| x r 9 : < a l / ( R                               ",
"                                                    r.W.v.c.Z.E.;.          o.B V H ~ / / E R R P P                             ",
"                                                    *.t.z.b.x.l.X.          | #.s.] ' / E R T P P P P                           ",
"                                                  &...-.1.8.;.2.-.J           e.P.0./ _ / W T P P P L P                         ",
"                                                M v v F =.8.=.G v v l         L.j.h.] _ _ / Y P L 7 8 5 8                       ",
"                                                  j b V &.5.K G j d           L.p.g.i.` / U n 5 , + o o +                       ",
"                                                    2 l M m m l               k.u.u.s.~ 5 , o o o o o + + +                     ",
"                                                                            U.s.u.9.[ 2 . X o o + @ @ @ @ @ +                   ",
"                                                                            P.i.q.7.N o X o @ @ @ @ @ @ % % @ +                 ",
"                                                                            R.g.7.) 4 . o @ % % @ @ % % @ @ % % +               ",
"                                                                              k.p.! + . X @ @ @ O O @ @ @ @ % & @ @             ",
"                                                                                d.l X X X o @ @ O @ @ @ @ @ @ @ @ @ +           ",
"                                                                                u.< . X X X o O O @ @ @ @ @ @ @ @ @ @ @         ",
"                                                                                  , X X o o o + O @ @ @ @ @ @ @ % @ @ % %       ",
"                                                                                    o o o X X o @ O O @ @ @ % % % @ @ & % &     ",
"                                                                                    $ O o X X o O O @ @ @ @ @ @ @ @ @ @ & @ @   ",
"                                                                                      * o X X X o @ @ @ @ @ @ @ @ @ @ @ @ @ @ @ ",
"                                                                                      @ O X X X X o @ @ @ @ @ @ @ @ @ @ @ @ & @ ",
"                                                                                        * o X X X o + @ @ @ @ @ @ @ @ @ @ & & & ",
"                                                                                        * O X X X X o O @ @ @ @ @ @ @ @ @ @ @ & ",
"                                                                                          # o X X X X o @ @ @ @ @ @ @ @ @ @ @ @ ",
"                                                                                          O O X X X X X O O @ @ @ @ @ @ @ @ @ @ ",
"                                                                                            O X X X X X o O O O @ @ @ O O @ @ @ "
};
